<svg xmlns="http://www.w3.org/2000/svg" viewBox="0 0 100 32" role="img" aria-label="Visa">
  <path fill="#1434CB" d="M42.2 31.2h-7.1L38.5 1.2h7.1L42.2 31.2zm-17.5 0h-6.7L9.8 12.6 7.2 31.2H.5L5.4 1.2h6.6l3.2 16.2 3.2-16.2h6.6l-5 30zm-11.2 0H1.8L7.2 1.2h7.3c2.8 0 4.8 1.5 4.5 4.5-.3 2.5-2.2 3.9-4.8 4.2l3.1 21.3H8.5L5.8 11.8H4.2c-.9 0-1.5.5-1.7 1.4L.5 31.2zm57.8 0h-6.8l6.6-30h6.8l-6.6 30zm14.2-20.6c0-7.7 10.6-8.1 10.6-11.5 0-1.2-1.2-2.5-3.8-2.5-3.2 0-5.5 1.7-5.5 1.7l-1-5.9s2.7-1.3 8-1.3c8.3 0 10.3 4.4 10.3 8.5 0 6.6-9.1 7-9.1 11.2 0 1.3 1.1 2.7 3.6 2.7 2.9 0 5.6-1.5 5.6-1.5l.9 5.7s-3.1 1.5-8.1 1.5c-8.8 0-10.9-4.3-10.9-8.4z"/>
</svg>
